<svg width="22" height="26" viewBox="0 0 22 26" fill="none" xmlns="http://www.w3.org/2000/svg">
<path d="M21.5521 24.2805C21.5521 24.9498 21.0064 25.5 20.3314 25.5H1.93945C1.26923 25.5 0.71875 24.9522 0.71875 24.2805C0.71875 18.5545 5.38132 13.9146 11.1353 13.9146C16.8893 13.9146 21.5518 18.5545 21.5518 24.2805H21.5521ZM11.1355 15.1341C6.05888 15.1341 1.94447 19.2285 1.94447 24.2805C1.94447 24.2781 20.3315 24.2805 20.3315 24.2805C20.3267 19.2285 16.2123 15.1341 11.1355 15.1341ZM11.1355 12.6951C7.75114 12.6951 5.00816 9.96549 5.00816 6.59756C5.00816 3.22963 7.75114 0.5 11.1355 0.5C14.5199 0.5 17.2629 3.22963 17.2629 6.59756C17.2629 9.96549 14.5199 12.6951 11.1355 12.6951ZM11.1355 11.4756C13.8426 11.4756 16.0374 9.29146 16.0374 6.59756C16.0374 3.90366 13.8426 1.71951 11.1355 1.71951C8.42846 1.71951 6.23364 3.90366 6.23364 6.59756C6.23364 9.29146 8.42846 11.4756 11.1355 11.4756Z" fill="#1A1A1A"/>
</svg>
